REM DIRINDEX 1\2\3,1\2\4,1\2\5,1\2\6
REM DIRNAME cjc157,folder01,folder02,folder03,folder04,folder05
TITLE ""
FILE "123 123.mp3" MP3
  TRACK 01 AUDIO
    TITLE "0:"
    INDEX 01 00:00:00
  TRACK 02 AUDIO
    TITLE "3:cjc157_4587"
    INDEX 01 00:00:11
  TRACK 03 AUDIO
    TITLE "0:"
    INDEX 01 00:01:36
  TRACK 04 AUDIO
    TITLE "4:cjc157_4588"
    INDEX 01 00:02:10
  TRACK 05 AUDIO
    TITLE "0:"
    INDEX 01 00:03:25
  TRACK 06 AUDIO
    TITLE "5:cjc157_4589"
    INDEX 01 00:03:66
  TRACK 07 AUDIO
    TITLE "0:"
    INDEX 01 00:05:34
  TRACK 08 AUDIO
    TITLE "3:cjc157_4590"
    INDEX 01 00:06:04
  TRACK 09 AUDIO
    TITLE "0:"
    INDEX 01 00:07:45
  TRACK 10 AUDIO
    TITLE "4:cjc157_4591"
    INDEX 01 00:08:17
  TRACK 11 AUDIO
    TITLE "0:"
    INDEX 01 00:09:34
  TRACK 12 AUDIO
    TITLE "5:cjc157_4592"
    INDEX 01 00:10:04
  TRACK 13 AUDIO
    TITLE "0:"
    INDEX 01 00:12:01
  TRACK 14 AUDIO
    TITLE "5:cjc157_4593"
    INDEX 01 00:12:46
  TRACK 15 AUDIO
    TITLE "0:"
    INDEX 01 00:14:41
  TRACK 16 AUDIO
    TITLE "3:cjc157_4594"
    INDEX 01 00:15:19
  TRACK 17 AUDIO
    TITLE "0:"
    INDEX 01 00:16:34
  TRACK 18 AUDIO
    TITLE "4:cjc157_4595"
    INDEX 01 00:17:02
  TRACK 19 AUDIO
    TITLE "0:"
    INDEX 01 00:18:11
  TRACK 20 AUDIO
    TITLE "5:cjc157_4596"
    INDEX 01 00:18:56
  TRACK 21 AUDIO
    TITLE "0:"
    INDEX 01 00:21:41
  TRACK 22 AUDIO
    TITLE "3:cjc157_4597"
    INDEX 01 00:22:09
  TRACK 23 AUDIO
    TITLE "0:"
    INDEX 01 00:23:55
  TRACK 24 AUDIO
    TITLE "4:cjc157_4598"
    INDEX 01 00:24:27
  TRACK 25 AUDIO
    TITLE "0:"
    INDEX 01 00:25:31
  TRACK 26 AUDIO
    TITLE "5:cjc157_4599"
    INDEX 01 00:26:03
  TRACK 27 AUDIO
    TITLE "0:"
    INDEX 01 00:29:05
  TRACK 28 AUDIO
    TITLE "3:cjc157_4600"
    INDEX 01 00:29:52
  TRACK 29 AUDIO
    TITLE "0:"
    INDEX 01 00:30:73
  TRACK 30 AUDIO
    TITLE "4:cjc157_4601"
    INDEX 01 00:31:41
  TRACK 31 AUDIO
    TITLE "0:"
    INDEX 01 00:32:52
  TRACK 32 AUDIO
    TITLE "5:cjc157_4602"
    INDEX 01 00:33:22
  TRACK 33 AUDIO
    TITLE "0:"
    INDEX 01 00:35:21
  TRACK 34 AUDIO
    TITLE "5:cjc157_4603"
    INDEX 01 00:35:70
  TRACK 35 AUDIO
    TITLE "0:"
    INDEX 01 00:37:54
  TRACK 36 AUDIO
    TITLE "5:cjc157_4604"
    INDEX 01 00:38:20
  TRACK 37 AUDIO
    TITLE "0:"
    INDEX 01 00:40:24
  TRACK 38 AUDIO
    TITLE "3:cjc157_4605"
    INDEX 01 00:40:68
  TRACK 39 AUDIO
    TITLE "0:"
    INDEX 01 00:42:14
  TRACK 40 AUDIO
    TITLE "4:cjc157_4606"
    INDEX 01 00:42:63
  TRACK 41 AUDIO
    TITLE "0:"
    INDEX 01 00:43:64
  TRACK 42 AUDIO
    TITLE "5:cjc157_4607"
    INDEX 01 00:44:32
  TRACK 43 AUDIO
    TITLE "0:"
    INDEX 01 00:46:66
  TRACK 44 AUDIO
    TITLE "5:cjc157_4608"
    INDEX 01 00:47:40
  TRACK 45 AUDIO
    TITLE "0:"
    INDEX 01 00:49:69
  TRACK 46 AUDIO
    TITLE "3:cjc157_4609"
    INDEX 01 00:50:39
  TRACK 47 AUDIO
    TITLE "0:"
    INDEX 01 00:51:56
  TRACK 48 AUDIO
    TITLE "4:cjc157_4610"
    INDEX 01 00:52:30
  TRACK 49 AUDIO
    TITLE "0:"
    INDEX 01 00:53:39
  TRACK 50 AUDIO
    TITLE "5:cjc157_4611"
    INDEX 01 00:54:11
  TRACK 51 AUDIO
    TITLE "0:"
    INDEX 01 00:57:64
  TRACK 52 AUDIO
    TITLE "5:cjc157_4612"
    INDEX 01 00:58:34
  TRACK 53 AUDIO
    TITLE "0:"
    INDEX 01 01:00:43
  TRACK 54 AUDIO
    TITLE "3:cjc157_4613"
    INDEX 01 01:01:13
  TRACK 55 AUDIO
    TITLE "0:"
    INDEX 01 01:02:69
  TRACK 56 AUDIO
    TITLE "4:cjc157_4614"
    INDEX 01 01:03:39
  TRACK 57 AUDIO
    TITLE "0:"
    INDEX 01 01:04:56
  TRACK 58 AUDIO
    TITLE "5:cjc157_4615"
    INDEX 01 01:05:26
  TRACK 59 AUDIO
    TITLE "0:"
    INDEX 01 01:07:72
  TRACK 60 AUDIO
    TITLE "5:cjc157_4616"
    INDEX 01 01:08:42
  TRACK 61 AUDIO
    TITLE "0:"
    INDEX 01 01:12:15
  TRACK 62 AUDIO
    TITLE "3:cjc157_4617"
    INDEX 01 01:12:62
  TRACK 63 AUDIO
    TITLE "0:"
    INDEX 01 01:14:04
  TRACK 64 AUDIO
    TITLE "4:cjc157_4618"
    INDEX 01 01:14:51
  TRACK 65 AUDIO
    TITLE "0:"
    INDEX 01 01:15:64
  TRACK 66 AUDIO
    TITLE "5:cjc157_4619"
    INDEX 01 01:16:36
  TRACK 67 AUDIO
    TITLE "0:"
    INDEX 01 01:18:41
  TRACK 68 AUDIO
    TITLE "5:cjc157_4620"
    INDEX 01 01:19:11
  TRACK 69 AUDIO
    TITLE "0:"
    INDEX 01 01:20:73
  TRACK 70 AUDIO
    TITLE "5:cjc157_4621"
    INDEX 01 01:21:43
  TRACK 71 AUDIO
    TITLE "0:"
    INDEX 01 01:22:74
  TRACK 72 AUDIO
    TITLE "5:cjc157_4622"
    INDEX 01 01:23:46
  TRACK 73 AUDIO
    TITLE "0:"
    INDEX 01 01:25:02
  TRACK 74 AUDIO
    TITLE "3:cjc157_4623"
    INDEX 01 01:25:49
  TRACK 75 AUDIO
    TITLE "0:"
    INDEX 01 01:27:03
  TRACK 76 AUDIO
    TITLE "4:cjc157_4624"
    INDEX 01 01:27:50
  TRACK 77 AUDIO
    TITLE "0:"
    INDEX 01 01:30:60
  TRACK 78 AUDIO
    TITLE "5:cjc157_4625"
    INDEX 01 01:31:34
  TRACK 79 AUDIO
    TITLE "0:"
    INDEX 01 01:33:42
  TRACK 80 AUDIO
    TITLE "5:cjc157_4626"
    INDEX 01 01:34:14
  TRACK 81 AUDIO
    TITLE "0:"
    INDEX 01 01:36:25
